REM DIRINDEX 1\2,1\3
REM DIRNAME cjc039,folder01,folder02
TITLE ""
FILE "1781-1800.mp3" MP3
  TRACK 01 AUDIO
    TITLE "0:"
    INDEX 01 00:00:00
  TRACK 02 AUDIO
    TITLE "2:cjc039_2561"
    INDEX 01 00:00:29
  TRACK 03 AUDIO
    TITLE "0:"
    INDEX 01 00:01:56
  TRACK 04 AUDIO
    TITLE "3:cjc039_2562"
    INDEX 01 00:02:32
  TRACK 05 AUDIO
    TITLE "0:"
    INDEX 01 00:05:14
  TRACK 06 AUDIO
    TITLE "2:cjc039_2563"
    INDEX 01 00:06:63
  TRACK 07 AUDIO
    TITLE "0:"
    INDEX 01 00:08:11
  TRACK 08 AUDIO
    TITLE "3:cjc039_2564"
    INDEX 01 00:08:64
  TRACK 09 AUDIO
    TITLE "0:"
    INDEX 01 00:12:67
  TRACK 10 AUDIO
    TITLE "2:cjc039_2565"
    INDEX 01 00:14:43
  TRACK 11 AUDIO
    TITLE "0:"
    INDEX 01 00:15:52
  TRACK 12 AUDIO
    TITLE "3:cjc039_2566"
    INDEX 01 00:16:30
  TRACK 13 AUDIO
    TITLE "0:"
    INDEX 01 00:18:56
  TRACK 14 AUDIO
    TITLE "2:cjc039_2567"
    INDEX 01 00:20:36
  TRACK 15 AUDIO
    TITLE "0:"
    INDEX 01 00:21:64
  TRACK 16 AUDIO
    TITLE "3:cjc039_2568"
    INDEX 01 00:22:42
  TRACK 17 AUDIO
    TITLE "0:"
    INDEX 01 00:26:20
  TRACK 18 AUDIO
    TITLE "2:cjc039_2569"
    INDEX 01 00:27:73
  TRACK 19 AUDIO
    TITLE "0:"
    INDEX 01 00:28:74
  TRACK 20 AUDIO
    TITLE "3:cjc039_2570"
    INDEX 01 00:29:48
  TRACK 21 AUDIO
    TITLE "0:"
    INDEX 01 00:33:21
  TRACK 22 AUDIO
    TITLE "2:cjc039_2571"
    INDEX 01 00:34:73
  TRACK 23 AUDIO
    TITLE "0:"
    INDEX 01 00:36:35
  TRACK 24 AUDIO
    TITLE "3:cjc039_2572"
    INDEX 01 00:37:10
  TRACK 25 AUDIO
    TITLE "0:"
    INDEX 01 00:41:04
  TRACK 26 AUDIO
    TITLE "2:cjc039_2573"
    INDEX 01 00:42:59
  TRACK 27 AUDIO
    TITLE "0:"
    INDEX 01 00:43:68
  TRACK 28 AUDIO
    TITLE "3:cjc039_2574"
    INDEX 01 00:44:42
  TRACK 29 AUDIO
    TITLE "0:"
    INDEX 01 00:47:48
  TRACK 30 AUDIO
    TITLE "2:cjc039_2575"
    INDEX 01 00:49:25
  TRACK 31 AUDIO
    TITLE "0:"
    INDEX 01 00:50:62
  TRACK 32 AUDIO
    TITLE "3:cjc039_2576"
    INDEX 01 00:51:38
  TRACK 33 AUDIO
    TITLE "0:"
    INDEX 01 00:55:18
  TRACK 34 AUDIO
    TITLE "2:cjc039_2577"
    INDEX 01 00:56:69
  TRACK 35 AUDIO
    TITLE "0:"
    INDEX 01 00:57:74
  TRACK 36 AUDIO
    TITLE "3:cjc039_2578"
    INDEX 01 00:58:50
  TRACK 37 AUDIO
    TITLE "0:"
    INDEX 01 01:01:50
  TRACK 38 AUDIO
    TITLE "2:cjc039_2579"
    INDEX 01 01:03:24
  TRACK 39 AUDIO
    TITLE "0:"
    INDEX 01 01:04:43
  TRACK 40 AUDIO
    TITLE "3:cjc039_2580"
    INDEX 01 01:05:22
  TRACK 41 AUDIO
    TITLE "0:"
    INDEX 01 01:08:48
  TRACK 42 AUDIO
    TITLE "2:cjc039_2581"
    INDEX 01 01:10:22
  TRACK 43 AUDIO
    TITLE "0:"
    INDEX 01 01:11:41
  TRACK 44 AUDIO
    TITLE "3:cjc039_2582"
    INDEX 01 01:12:17
  TRACK 45 AUDIO
    TITLE "0:"
    INDEX 01 01:15:50
  TRACK 46 AUDIO
    TITLE "2:cjc039_2583"
    INDEX 01 01:17:26
  TRACK 47 AUDIO
    TITLE "0:"
    INDEX 01 01:18:62
  TRACK 48 AUDIO
    TITLE "3:cjc039_2584"
    INDEX 01 01:19:36
  TRACK 49 AUDIO
    TITLE "0:"
    INDEX 01 01:24:00
  TRACK 50 AUDIO
    TITLE "2:cjc039_2585"
    INDEX 01 01:25:49
  TRACK 51 AUDIO
    TITLE "0:"
    INDEX 01 01:26:58
  TRACK 52 AUDIO
    TITLE "3:cjc039_2586"
    INDEX 01 01:27:40
  TRACK 53 AUDIO
    TITLE "0:"
    INDEX 01 01:30:50
  TRACK 54 AUDIO
    TITLE "2:cjc039_2587"
    INDEX 01 01:32:23
  TRACK 55 AUDIO
    TITLE "0:"
    INDEX 01 01:33:56
  TRACK 56 AUDIO
    TITLE "3:cjc039_2588"
    INDEX 01 01:34:34
  TRACK 57 AUDIO
    TITLE "0:"
    INDEX 01 01:38:22
  TRACK 58 AUDIO
    TITLE "2:cjc039_2589"
    INDEX 01 01:39:72
  TRACK 59 AUDIO
    TITLE "0:"
    INDEX 01 01:40:70
  TRACK 60 AUDIO
    TITLE "3:cjc039_2590"
    INDEX 01 01:41:48
  TRACK 61 AUDIO
    TITLE "0:"
    INDEX 01 01:44:17
  TRACK 62 AUDIO
    TITLE "2:cjc039_2591"
    INDEX 01 01:45:69
  TRACK 63 AUDIO
    TITLE "0:"
    INDEX 01 01:47:07
  TRACK 64 AUDIO
    TITLE "3:cjc039_2592"
    INDEX 01 01:47:58
  TRACK 65 AUDIO
    TITLE "0:"
    INDEX 01 01:51:34
  TRACK 66 AUDIO
    TITLE "2:cjc039_2593"
    INDEX 01 01:53:14
  TRACK 67 AUDIO
    TITLE "0:"
    INDEX 01 01:54:23
  TRACK 68 AUDIO
    TITLE "3:cjc039_2594"
    INDEX 01 01:54:72
  TRACK 69 AUDIO
    TITLE "0:"
    INDEX 01 01:57:43
  TRACK 70 AUDIO
    TITLE "2:cjc039_2595"
    INDEX 01 01:59:16
  TRACK 71 AUDIO
    TITLE "0:"
    INDEX 01 02:00:37
  TRACK 72 AUDIO
    TITLE "3:cjc039_2596"
    INDEX 01 02:01:15
  TRACK 73 AUDIO
    TITLE "0:"
    INDEX 01 02:05:11
  TRACK 74 AUDIO
    TITLE "2:cjc039_2597"
    INDEX 01 02:06:61
  TRACK 75 AUDIO
    TITLE "0:"
    INDEX 01 02:07:71
  TRACK 76 AUDIO
    TITLE "3:cjc039_2598"
    INDEX 01 02:08:47
  TRACK 77 AUDIO
    TITLE "0:"
    INDEX 01 02:11:53
  TRACK 78 AUDIO
    TITLE "2:cjc039_2599"
    INDEX 01 02:13:26
  TRACK 79 AUDIO
    TITLE "0:"
    INDEX 01 02:14:49
  TRACK 80 AUDIO
    TITLE "3:cjc039_2600"
    INDEX 01 02:15:23
  TRACK 81 AUDIO
    TITLE "0:"
    INDEX 01 02:19:62
